<svg version="1.1" viewBox="0 0 32 32" xml:space="preserve" xmlns="http://www.w3.org/2000/svg">
  <g>
    <path d="M26.71,7.84c0-0.82-0.67-1.48-1.48-1.48c-0.29,0-0.55,0.09-0.78,0.23c0.09-0.19,0.14-0.39,0.14-0.62c0-0.82-0.67-1.48-1.48-1.48c-0.64,0-1.18,0.41-1.39,0.98c-0.24-0.17-0.54-0.28-0.86-0.28c-0.29,0-0.57,0.09-0.80,0.24c0.01-0.08,0.02-0.16,0.02-0.24c0-0.82-0.67-1.48-1.48-1.48c-0.55,0-1.03,0.30-1.28,0.75c-0.21-0.12-0.46-0.19-0.72-0.19c-0.82,0-1.48,0.67-1.48,1.48c0,0.06,0.01,0.11,0.02,0.16c-0.20-0.10-0.42-0.16-0.66-0.16c-0.04,0-0.08,0.01-0.11,0.01c0.07-0.18,0.11-0.37,0.11-0.57c0-0.82-0.67-1.48-1.48-1.48s-1.48,0.67-1.48,1.48c0,0.02,0.01,0.04,0.01,0.06c-0.13-0.03-0.26-0.06-0.39-0.06c-0.08,0-0.16,0.01-0.24,0.02c0-0.01,0-0.02,0-0.02c0-0.82-0.67-1.48-1.48-1.48s-1.48,0.67-1.48,1.48c-0.82,0-1.48,0.67-1.48,1.48c0,0.08,0.01,0.16,0.02,0.24c-0.71,0.11-1.26,0.72-1.26,1.46c0,0.70,0.49,1.29,1.15,1.44l-0.73,0.97l9.49,2.33l7.98-1.56l2.83-1.31l-0.14-1.03c0.38-0.58,0.61-1.28,0.61-2.06z" fill="#E8E462" stroke="#191919" stroke-miterlimit="10"/>
      <g>
      <path d="M8.53,29.67c-0.32,0-0.59-0.23-0.64-0.54L4.59,9.32c-0.03-0.19,0.02-0.38,0.14-0.52s0.30-0.23,0.49-0.23h21.57c0.19,0,0.37,0.08,0.49,0.23s0.18,0.34,0.14,0.52l-3.30,19.81c-0.05,0.31-0.32,0.54-0.64,0.54H8.53z" fill="#EFEFEF"/>
          <path d="M26.77,8.71c0.30,0,0.53,0.27,0.48,0.57l-3.30,19.83c-0.04,0.23-0.24,0.41-0.48,0.41H8.53c-0.24,0-0.44-0.17-0.48-0.41L4.75,9.28c-0.05-0.30,0.18-0.57,0.48-0.57h21.54m0-0.32h-21.54c-0.24,0-0.46,0.10-0.62,0.29c-0.15,0.18-0.22,0.42-0.18,0.65l3.30,19.83c0.07,0.39,0.40,0.68,0.80,0.68h14.94c0.40,0,0.73-0.28,0.80-0.68l3.30-19.83c0.04-0.23-0.03-0.47-0.18-0.65c-0.15-0.18-0.38-0.29-0.62-0.29z" fill="#191919"/>
    </g>
      <polygon fill="#A52929" points="10.37,29.51 8.12,29.51 4.66,8.71 7.90,8.71"/>
      <polygon fill="#A52929" points="14.87,29.51 12.62,29.51 11.14,8.71 14.38,8.71"/>
      <polygon fill="#A52929" points="19.38,29.51 17.13,29.51 17.62,8.71 20.86,8.71"/>
      <polygon fill="#A52929" points="23.88,29.51 21.63,29.51 24.10,8.71 27.34,8.71"/>
      <g>
      <path d="M27.02,8.71c0.17,0,0.30,0.15,0.27,0.32l-3.37,20.25c-0.02,0.13-0.14,0.23-0.27,0.23H8.36c-0.13,0-0.25-0.10-0.27-0.23L4.72,8.71c-0.03-0.17,0.10-0.32,0.27-0.32h21.54m0-0.32h-21.54c-0.18,0-0.34,0.08-0.45,0.21c-0.11,0.13-0.16,0.31-0.13,0.48l3.37,20.25c0.05,0.29,0.29,0.50,0.59,0.50h15.30c0.29,0,0.54-0.21,0.59-0.50l3.37-20.25c0.03-0.17-0.02-0.35-0.13-0.48c-0.11-0.13-0.29-0.21-0.45-0.21z" fill="#191919"/>
    </g>
  </g>
</svg>
